<?xml version="1.0" encoding="UTF-8"?>
<svg width="25px" height="10px" viewBox="0 0 25 10" version="1.1" xmlns="http://www.w3.org/2000/svg" xmlns:xlink="http://www.w3.org/1999/xlink">
    <!-- Generator: Sketch 50.2 (55047) - http://www.bohemiancoding.com/sketch -->
    <title>Fill 5 Copy</title>
    <desc>Created with Sketch.</desc>
    <defs></defs>
    <g id="landing-desktop" stroke="none" stroke-width="1" fill="none" fill-rule="evenodd">
        <g id="Основной-лендинг" transform="translate(-1132.000000, -4802.000000)" fill="#000000">
            <path d="M1144.20534,4803.5748 C1142.31066,4804.57218 1141.02122,4805.07087 1140.33703,4805.07087 C1138.91602,4805.07087 1138.33051,4804.04724 1138.59366,4802 L1132.04122,4803.73228 C1131.83727,4806.35696 1132.38989,4808.39108 1133.70564,4809.83465 C1135.02139,4811.27822 1136.88976,4812 1139.31075,4812 C1140.94228,4812 1142.81065,4811.48819 1144.90927,4810.46457 C1147.02105,4809.44094 1148.31049,4808.92913 1148.78416,4808.92913 C1150.20517,4808.92913 1150.75779,4809.95276 1150.44201,4812 L1156.91551,4812 C1157.22471,4808.90289 1156.68525,4806.47507 1155.29713,4804.71654 C1153.90244,4802.95801 1151.88934,4802.07874 1149.25783,4802.07874 C1147.78419,4802.07874 1146.10003,4802.57743 1144.20534,4803.5748" id="Fill-5-Copy"></path>
        </g>
    </g>
</svg>